<svg width="831" height="1024" viewBox="0 0 831 1024" fill="none" xmlns="http://www.w3.org/2000/svg">
<path fill-rule="evenodd" clip-rule="evenodd" d="M569.909 234.841C617.223 277.23 524.802 360.914 544.609 421.269C568.392 493.745 680.211 519.828 688.317 595.668C695.538 663.217 637.307 727.481 581.471 766.129C526.831 803.95 454.395 808.968 388.156 803.433C332.612 798.792 292.337 742.254 236.817 737.331C186.229 732.844 142.492 779.463 91.7594 777.148C32.4776 774.443 -50.4424 776.872 -75.5451 723.08C-103.484 663.209 -33.2854 600.059 -21.1815 535.127C-13.7537 495.281 -23.9083 455.201 -18.1313 415.081C-11.8864 371.711 -14.1547 322.765 14.2046 289.377C42.565 255.988 91.4345 250.966 133.006 237.144C171.457 224.359 209.755 207.661 250.152 210.925C289.874 214.135 319.774 252.472 359.515 255.445C430.684 260.768 516.737 187.206 569.909 234.841Z" fill="#FDE7D0" fill-opacity="0.5"/>
</svg>
