<svg xmlns="http://www.w3.org/2000/svg" viewBox="0 0 2751.77 1769.79"><defs><style>.cls-1{fill:#fde7d0;}.cls-2{fill:#2c3a64;}.cls-3{fill:#ed975d;}.cls-4{fill:#ffa412;}.cls-5{fill:#35488b;}.cls-6{fill:#ffb27d;}.cls-7{fill:#2b478b;}.cls-8{fill:#ffb93e;}.cls-17,.cls-9{fill:#82b378;}.cls-10{fill:#a8d29f;}.cls-11{fill:#ed7d2b;}.cls-12{fill:#f99746;}.cls-13{fill:#ffb176;}.cls-14{fill:#db6a1f;}.cls-15{fill:#e8c6a7;}.cls-16{fill:#c69d7b;}.cls-17{opacity:0.5;}.cls-18{fill:#e2810e;}.cls-19{fill:#2e3552;}</style></defs><title>Sad</title><g id="Layer_2" data-name="Layer 2"><g id="Слой_2" data-name="Слой 2"><path class="cls-1" d="M269.35,1745.33s-301.62-323.85-51-674.46c222.36-311.08,455.27-184.47,672.42-114,157.49,51.07,314-42.9,512.77-359.44C1674.63,165.71,2614.37,427.52,2443,1091.66c-82.91,321.4,252.36,333.08,81.52,654.35Z"/><path class="cls-2" d="M1672.22,1762.12c.25.12.52.22.85.35h167.57c-1.57-6-7.05-16.83-26.22-20-26-4.22-71.07-19.32-81.12-52.6-.32-1.06-.61-2.16-.86-3.27-8-35.54-66,10.89-66,10.89s-.18,1.42-.42,3.83C1664.64,1714.41,1661.2,1756.6,1672.22,1762.12Z"/><path class="cls-2" d="M1893.85,1160.27s-109,387.12-141.81,536.82c0,0-80.88,16.23-93.46-9.19,0,0,26.06-421.56,74-475.11C1792.22,1146.18,1893.85,1160.27,1893.85,1160.27Z"/><path class="cls-3" d="M1972.79,746.86s-2.85-17.32,1.61-31.74,23.12-52.46,17.21-65.68-27.27-48.78-40.46-48.67,13.86,38.05,10.15,49.91-4.94,12.82-9.52,11.77-11.56-23.74-13.88-18.44-1,40.42,3.39,49.19-4.58,58.22-4.58,58.22Z"/><path class="cls-4" d="M1983.33,739.15s-29.17-16.57-51.74-9.59c0,0-44.79,129-69.45,223.84-47.35-116.82-76.48-233.33-76.48-233.33s-57.4,79.27-78.12,132,103.12,237.65,151.17,252.16c50.15,15.14,41,0,69.32-16.22C1937.14,1076.18,1966.25,1017.39,1983.33,739.15Z"/><path class="cls-2" d="M2115.34,1747.1a8.19,8.19,0,0,0,.85.35h167.57c-1.57-6-7.05-16.82-26.22-19.94-26-4.22-71.07-19.33-81.13-52.6-.31-1.06-.6-2.16-.85-3.27-8-35.54-66,10.89-66,10.89s-.19,1.41-.43,3.83C2107.76,1699.39,2104.32,1741.59,2115.34,1747.1Z"/><path class="cls-5" d="M1996.3,1129.82s-16.32,7.27-36.47,22.12a102.29,102.29,0,0,0-5.59-19.25c-143.8-37.45-528.73-34.4-528.73-34.4s-82.76,20.73-58.46,141.2c22.36,110.86,392,59.52,511.33,26.26,2.8-.77,5.5-1.59,8.12-2.44-9.5,70.64,57,171.4,115.25,264.13,48,76.44,88.85,153.82,88.85,153.82,24.11,15,105,6.31,105,6.31C2144.49,1543.09,1996.3,1129.82,1996.3,1129.82Z"/><path class="cls-6" d="M1679,680.93s41.28,132.17,103.29,161.73c0,0,5.87-40.1-4.17-70.6,8.19-6.26,15.45-12.08,21.77-17.32,21-17.5,31.66-28.71,31.66-28.71l-9.22-64.44L1816,617.86a198.78,198.78,0,0,1-30.88,28.78C1731.62,686.56,1679,680.93,1679,680.93Z"/><path class="cls-3" d="M1785.15,646.64s-20.79,57.21,14.69,108.1c21-17.5,31.66-28.71,31.66-28.71l-9.22-64.44C1800.08,649.17,1785.15,646.64,1785.15,646.64Z"/><path class="cls-6" d="M1847.23,738.56s-91.42-60.66-52.77-117,52.88-102.14,112.88-65.79,56.48,65.54,48.16,87.49S1872,752.88,1847.23,738.56Z"/><path class="cls-7" d="M1805.09,503.57c-.4-1.54-2.11-3.46-6.74-6.05a21.29,21.29,0,0,1,10.13,1.81c4.29-6.23,13.64-16.41,26.45-13.72,0,0-7.74.32-12,7.07,19.94-7.29,53.12-3.46,128.33,41.17,99.11,58.82,32.24,109.25,15,110.7s-40.16-36.94-66-47.13-48.5,24-59.39,24.89-3.24-6.36-12.09-17.2-19.36,7.85-22.19,22S1779.9,650,1779.9,650l-7.36-25.11c-7.36-25.12,13.69-105.92,28.57-118Z"/><path class="cls-8" d="M1790.19,901.14c-27.46,65-52.56,106.57-55.85,112-11.83,19.56-24.54,37.51-36.15,53.19-.37.5-.74,1-1.1,1.49-22.89,30.78-57.87,39.26-56.79,47,2.19,15.49-36.93,52.64-101.42,69.12-74.84,19.12-161.57,28.32-183.48,3-7.33-8.49-9.78-24.11-9-43.53,1.6-40.91,53.09-205.65,53.09-205.65,88.08-266.57,340.33-266.57,340.33-266.57s-4.94,63.86,57,86C1796.92,757.35,1811.38,851,1790.19,901.14Z"/><path class="cls-6" d="M1938.34,1090.82s37.88,13.39,48.27,19.89,34.3,39.24,37,50.71,5.85,45.2,3.89,50.84-31-16-37.4-36.35-23-25.85-22.37-24.75,9.11,27.16,7.32,28.29-9.51,3.07-16.5-11.48-20.85-25.19-18.23-40.22S1938.34,1090.82,1938.34,1090.82Z"/><path class="cls-4" d="M1641.56,1117c2.18,15.49-38.19,50.49-102.68,67-53.8-107,48.49-352.05,48.49-352.05l110.82,234.46C1674.8,1097.9,1640.46,1109.11,1641.56,1117Z"/><path class="cls-4" d="M1734.34,1013.14c-11.83,19.56-24.54,37.51-36.15,53.19-.37.5-.74,1-1.1,1.49-15.2-5.86-30.3-17.55-37.9-28.3-17.45-24.64-18.89-172.81-18.89-172.81S1711.76,955,1734.34,1013.14Z"/><path class="cls-8" d="M1952.87,1094.14s-172.84-48.38-261.55-69.55c7.82-104.67,33.44-421.12-127.75-294.44,0,0-12.18,339.13,65.92,407.83,0,0,250.72,5.31,298.47,2.38,0,0,14-7.26,17.51-12.1C1956.61,1112.78,1952.87,1094.14,1952.87,1094.14Z"/><path class="cls-9" d="M882,1623l6.37-.57c-2.44-46.42-37.57-72.4-37.57-72.4-24.6-21.8-32.59-45.74-32.59-45.74s41.51-48.43,2.56-79.19c0,0-28.45-17.23-51.65-15.83,0,0,32.87,55.12,22.24,60.61s-32.2-64.07-32.2-64.07-64.75-6.27-85.58,3.74c0,0,55.35,45.29,43.69,48s-71.44-41.76-71.44-41.76-60.26,10.25-57,47,24,48.12,33.1,47.14,62.51-21.36,63.67-13.88-31,31.91-53.47,33.06c0,0,42.48,46.85,70.72,33.33s30.64-35,48.24-43,32.63-8,25.36.18-39.12,16.17-49.18,34-19.1,29.82,10.11,25.42,76.7-25.77,78.78-50.25c.1-1.07.18-2.08.27-3.06a11.7,11.7,0,0,1-.27,3.06c6.1,1.09,18.76,12.3,27.9,21.09,1.41,1.55,3.49,3.61,6.46,6.37,1.12,1.12,2,2.08,2.75,2.79C871.75,1579.28,882,1623,882,1623Z"/><path class="cls-10" d="M963.31,1443.33s-66-37-35.21-87.16c0,0,24.65-30.82,51.06-38.74,0,0-14.08,74.84,0,76.6s9.69-84.52,9.69-84.52,69.55-33.46,96.84-30.82c0,0-43.14,73.08-29,71.32s62.51-75.72,62.51-75.72,71.32-13.21,82.76,29-7,63.4-17.61,66-78.36,1.76-76.59,10.56,47.54,22.89,73.07,15c0,0-28.17,69.55-65.15,66s-48.42-26.41-71.32-28.17-39.62,4.4-28.17,10.56,50.19,2,68.67,17.74,33.46,25.4-.88,32.45-96,2.64-108.29-23.77Z"/><path class="cls-9" d="M1169.34,1316.55s-184.9,59.87-206,126.78c0,0,.88,29.94-17.6,64.27,0,0-28.52,43.3-12.26,96l7.33-2s-6.41-52.29,5.69-82.58c.5-1.11,1.22-2.72,2.12-4.69,2.19-4.29,3.66-7.44,4.6-9.73,6.59-13.53,16.11-31.19,22.45-34.89C975.64,1469.75,934.26,1411.64,1169.34,1316.55Z"/><path class="cls-10" d="M858.26,1392.33s87-48.74,46.43-114.89c0,0-32.5-40.62-67.32-51.07,0,0,18.57,98.65,0,101s-12.77-111.41-12.77-111.41-91.68-44.1-127.66-40.62c0,0,56.87,96.32,38.3,94s-82.4-99.81-82.4-99.81-94-17.4-109.09,38.3,9.28,83.57,23.21,87,103.29,2.32,101,13.92S605.26,1339,571.6,1328.5c0,0,37.14,91.69,85.88,87s63.83-34.82,94-37.14,52.22,5.8,37.14,13.92-66.16,2.67-90.53,23.39-44.1,33.48,1.16,42.77S825.77,1462,842,1427.15Z"/><path class="cls-9" d="M881.47,1477.06c-24.37-45.27-23.21-84.73-23.21-84.73-27.85-88.2-271.57-167.12-271.57-167.12C896.56,1350.55,842,1427.15,842,1427.15c8.35,4.87,20.88,28.1,29.57,45.92,1.23,3,3.19,7.23,6.1,12.93,1.18,2.58,2.13,4.68,2.78,6.16C896.41,1532.08,888,1601,888,1601l9.67,2.6C919.06,1534.13,881.47,1477.06,881.47,1477.06Z"/><path class="cls-11" d="M690.69,1583.77a170.51,170.51,0,1,0,341,0Z"/><path class="cls-12" d="M802.92,1583.77c0,63.89,15.31,128.94,67.31,158.15,8.64,4.85,37.58-.41,47.08,2.9a170.57,170.57,0,0,0,114.39-161Z"/><path class="cls-13" d="M861.2,1754.27c6.93.87-28,0-20.78,0a170.5,170.5,0,0,0,170.5-170.5H968.56C968.56,1670.77,945.37,1743.84,861.2,1754.27Z"/><path class="cls-11" d="M688.34,1763h345.71a21,21,0,0,0-21-21H709.37A21,21,0,0,0,688.34,1763Z"/><path class="cls-12" d="M850.32,1763h183.73a21,21,0,0,0-21-21H871.35A21,21,0,0,0,850.32,1763Z"/><rect class="cls-14" x="686.81" y="1583.77" width="350.49" height="5.23" transform="translate(1724.12 3172.77) rotate(180)"/><rect class="cls-12" x="1291.13" y="1298.37" width="444.18" height="116.72" rx="25.02"/><path class="cls-11" d="M1735.31,1377.93v12.14a25.09,25.09,0,0,1-25,25H1316.15a25.09,25.09,0,0,1-25-25v-13.14h437A26.09,26.09,0,0,1,1735.31,1377.93Z"/><path class="cls-15" d="M1386,1415.09l-17.76,67.3,0,0-74,280.08h-7.78l42.75-232.37c0-.23.1-.46.14-.71l21.15-114.92Z"/><path class="cls-16" d="M1386,1415.09l-17.76,67.3,0,0c-1,.5-33.36,17.22-38.85,47l21.15-114.92Z"/><path class="cls-15" d="M1735.31,1762.49h-7.78l-60.26-228.16v0l-13.7-51.88,0,0-17.77-67.3,35.49-.6,12.1,65.71,9.05,49.21c0,.25.1.48.14.71Z"/><path class="cls-15" d="M1615.17,1503.22s-.08,0-.12-.08C1614.88,1502.84,1614.92,1502.91,1615.17,1503.22Z"/><path class="cls-16" d="M1683.37,1480.2c-6.55,9.53-15.58,27.44-16.1,54.09l-13.7-51.88,0,0-17.77-67.3,35.49-.6Z"/><path class="cls-1" d="M1344.42,439.24c-11.22,53-27.08,101.36-47.56,144.69-.94,2-1.88,4-2.86,5.93-.48,1-1,2-1.45,3q-1.85,3.74-3.75,7.41c-.67,1.32-1.36,2.63-2.06,3.94-1.22,2.36-2.49,4.7-3.76,7s-2.58,4.68-3.89,7c-2.27,4-4.57,7.95-6.94,11.85-.46.75-.91,1.5-1.38,2.24-1.22,2-2.46,4-3.75,6-.46.77-1,1.54-1.45,2.3q-1.85,2.89-3.75,5.75c-.67,1-1.37,2-2,3.06q-1.86,2.76-3.75,5.47v0h0l-2.06,2.94h0a2.55,2.55,0,0,1-.21.28q-1.85,2.63-3.75,5.2c-.48.67-1,1.34-1.46,2q-1.87,2.52-3.75,5c-.68.89-1.36,1.77-2.06,2.65-1.23,1.61-2.48,3.2-3.76,4.79s-2.61,3.28-4,4.89-2.47,3-3.75,4.5c-.92,1.1-1.84,2.19-2.8,3.27a2.39,2.39,0,0,1-.21.26l-.53.6c-1.22,1.43-2.47,2.84-3.75,4.25q-4.08,4.61-8.34,9.06-1.84,2-3.75,3.9c-2.92,3-5.91,6-8.94,8.89q-1.85,1.82-3.76,3.58-3.27,3.09-6.63,6.09a.22.22,0,0,1-.07.06c-1.27,1.14-2.56,2.28-3.85,3.4s-2.48,2.17-3.75,3.22q-10.15,8.67-20.92,16.59-1.87,1.39-3.75,2.74-7.7,5.53-15.69,10.69c-2.62,1.71-5.29,3.39-8,5q-8.7,5.34-17.73,10.24-6.94,3.76-14,7.26-10.77,5.3-22,10-1.85.79-3.75,1.56-3.27,1.33-6.58,2.61-4.79,1.86-9.64,3.61-10.76,3.88-21.9,7.22c-2.64.8-5.29,1.56-7.94,2.3q-15.37,4.32-31.42,7.62-12.3,2.53-25,4.47A546.06,546.06,0,0,1,916,831.46c-3.4.15-6.84.26-10.3.34q-7.53.19-15.23.19-9.23,0-18.54-.21a857.93,857.93,0,0,1-158.4-18.36c-4-.84-7.87-1.7-11.79-2.6-46.31-10.6-90.94-25.22-131.31-44-1-.47-2.06-1-3.06-1.43q-15.26-7.18-29.63-15.18c-106.33-59.12-173.42-151-144.12-277.48C439.09,276.18,713.86,65.7,959.23,14.08,1317.88-61.39,1399.63,178.91,1344.42,439.24Z"/><path class="cls-8" d="M1144.5,763.76c-2.62,1.71-5.29,3.39-8,5q-8.7,5.34-17.73,10.24-6.94,3.76-14,7.26-10.77,5.3-22,10-1.85.79-3.75,1.56-3.27,1.33-6.58,2.61H934.07a7.81,7.81,0,0,1-3.67-.9,8,8,0,0,1-4.27-6.31l0-.36V771.33a8,8,0,0,1,8-7.57Z"/><path class="cls-4" d="M1082.75,763.76v32.52q-1.85.79-3.75,1.56V763.76Z"/><rect class="cls-4" x="1047.37" y="763.76" width="3.75" height="36.7"/><path class="cls-8" d="M1192.53,727.06a.22.22,0,0,1-.07.06c-1.27,1.14-2.56,2.28-3.85,3.4s-2.48,2.17-3.75,3.22q-10.15,8.67-20.92,16.59-1.87,1.39-3.75,2.74-7.7,5.53-15.69,10.69H942a8,8,0,0,1-8-7.58c0-.13,0-.27,0-.41V735.05c0-.14,0-.27,0-.41a8,8,0,0,1,7-7.52,7.57,7.57,0,0,1,1-.06Z"/><path class="cls-4" d="M1188.61,727.06v3.46c-1.23,1.09-2.48,2.17-3.75,3.22v-6.68Z"/><path class="cls-4" d="M1163.94,727.06v23.27q-1.87,1.39-3.75,2.74v-26Z"/><rect class="cls-4" x="1122.34" y="727.06" width="3.75" height="36.7"/><rect class="cls-4" x="1086.91" y="727.06" width="3.75" height="36.7"/><rect class="cls-4" x="1055.27" y="727.06" width="3.75" height="36.7"/><path class="cls-8" d="M1215.61,690.43V704.6q4.26-4.46,8.34-9.06v-5.11Zm0,0V704.6q4.26-4.46,8.34-9.06c1.28-1.41,2.53-2.82,3.75-4.25l.53-.6a2.39,2.39,0,0,0,.21-.26Zm0,0V704.6q4.26-4.46,8.34-9.06c1.28-1.41,2.53-2.82,3.75-4.25l.53-.6a2.39,2.39,0,0,0,.21-.26Zm0,0V704.6q4.26-4.46,8.34-9.06c1.28-1.41,2.53-2.82,3.75-4.25l.53-.6a2.39,2.39,0,0,0,.21-.26Zm0,0V704.6q4.26-4.46,8.34-9.06c1.28-1.41,2.53-2.82,3.75-4.25l.53-.6a2.39,2.39,0,0,0,.21-.26Zm0,0V704.6q4.26-4.46,8.34-9.06c1.28-1.41,2.53-2.82,3.75-4.25l.53-.6a2.39,2.39,0,0,0,.21-.26Zm0,0V704.6q4.26-4.46,8.34-9.06v-5.11Zm-297.9,0a7.77,7.77,0,0,0-1.73.19l-.24,0a8.05,8.05,0,0,0-5.9,6.36c0,.21-.06.42-.08.64l0,.33v21.54a4.89,4.89,0,0,0,0,.55c.06.37.12.72.21,1.07a8,8,0,0,0,7.72,6h274.75a.22.22,0,0,0,.07-.06q3.36-3,6.63-6.09,1.92-1.77,3.76-3.58c3-2.9,6-5.87,8.94-8.89q1.91-1.93,3.75-3.9,4.26-4.46,8.34-9.06c1.28-1.41,2.53-2.82,3.75-4.25l.53-.6a2.39,2.39,0,0,0,.21-.26Z"/><path class="cls-4" d="M1093.7,727.12H916.86c-3.8,0-6.93-3.37-7.12-7.57,0-.14,0-.28,0-.41V698.41c0-.13,0-.27,0-.41s0-.22,0-.33a7.8,7.8,0,0,1,5.53-7l.31-.07a6.56,6.56,0,0,1,1.26-.12H1072l.06.26c2.51,10.76,8.28,25.51,21.59,36.37Z"/><path class="cls-4" d="M1215.61,690.43V704.6q-1.84,2-3.75,3.9V690.43Z"/><path class="cls-4" d="M1202.92,690.43v27q-1.85,1.82-3.76,3.58V690.43Z"/><rect class="cls-4" x="1183.94" y="690.43" width="3.75" height="36.7"/><rect class="cls-4" x="1160.6" y="690.43" width="3.75" height="36.7"/><rect class="cls-4" x="1135.92" y="690.43" width="3.75" height="36.7"/><rect class="cls-4" x="1098.07" y="690.43" width="3.75" height="36.7"/><rect class="cls-4" x="1062.64" y="690.43" width="3.75" height="36.7"/><rect class="cls-4" x="1031.01" y="690.43" width="3.75" height="36.7"/><path class="cls-4" d="M1227.7,690.43v.86c-1.22,1.43-2.47,2.84-3.75,4.25v-5.11Z"/><path class="cls-8" d="M1228.23,654.9V654H1227v36.44h1.42c1-1.08,1.88-2.17,2.8-3.27q1.92-2.24,3.75-4.5V654.9Zm25.5,2.62a9.09,9.09,0,0,0-.73-.91l-.06-.07-.06-.07c-.06-.07-.14-.13-.19-.19l-.27-.24-.26-.23a6.53,6.53,0,0,0-.57-.43,5.4,5.4,0,0,0-.81-.48h0a3.55,3.55,0,0,0-.39-.2l-.19-.09-.21-.08a7.56,7.56,0,0,0-1.46-.41l-.12,0-.09,0-.16,0-.15,0h-.29a5.74,5.74,0,0,0-.6,0H917a8,8,0,0,0-8,7.58c0,.13,0,.27,0,.41V682.7c0,.14,0,.27,0,.41a4.37,4.37,0,0,0,.06.72,8,8,0,0,0,6.48,6.72l.39.07a8.93,8.93,0,0,0,1,.07h311.21a2.39,2.39,0,0,0,.21-.26c1-1.08,1.88-2.17,2.8-3.27q1.92-2.24,3.75-4.5c1.35-1.61,2.66-3.25,4-4.89s2.53-3.18,3.76-4.79c.7-.88,1.38-1.76,2.06-2.65q1.88-2.48,3.75-5c.5-.66,1-1.33,1.46-2q1.9-2.58,3.75-5.2a2.55,2.55,0,0,0,.21-.28h0C1253.86,657.73,1253.8,657.62,1253.73,657.52Zm-25.5-2.62V654H1227v36.44h1.42c1-1.08,1.88-2.17,2.8-3.27q1.92-2.24,3.75-4.5V654.9Z"/><path class="cls-4" d="M1093,690.69H916.17l-.42,0a3.41,3.41,0,0,1-.46,0c-3.4-.46-6.07-3.63-6.24-7.51,0-.14,0-.27,0-.41V662c0-.14,0-.28,0-.41.19-4.21,3.31-7.58,7.12-7.58h155.11c.07.3.14.6.22.91,2.57,10.63,8.31,24.9,21.19,35.53Z"/><rect class="cls-4" x="1211.17" y="653.99" width="3.75" height="36.69"/><rect class="cls-4" x="1198.47" y="653.99" width="3.75" height="36.69"/><rect class="cls-4" x="1183.25" y="653.99" width="3.75" height="36.69"/><rect class="cls-4" x="1159.9" y="653.99" width="3.75" height="36.69"/><rect class="cls-4" x="1135.22" y="653.99" width="3.75" height="36.69"/><rect class="cls-4" x="1097.38" y="653.99" width="3.75" height="36.69"/><rect class="cls-4" x="1061.95" y="653.99" width="3.75" height="36.69"/><rect class="cls-4" x="1030.31" y="653.99" width="3.75" height="36.69"/><rect class="cls-4" x="1223.26" y="653.99" width="3.75" height="36.69"/><path class="cls-4" d="M1235,654v28.67q-1.83,2.26-3.75,4.5V654Z"/><path class="cls-4" d="M1242.71,654v19c-1.23,1.61-2.48,3.2-3.76,4.79V654Z"/><path class="cls-4" d="M1248.52,654.12v11.21q-1.87,2.52-3.75,5V654h2.34a5.74,5.74,0,0,1,.6,0h.29l.15,0,.16,0h.09Z"/><path class="cls-8" d="M1272.15,626.19v3.86c-.46.75-.91,1.5-1.38,2.24-1.22,2-2.46,4-3.75,6-.46.77-1,1.54-1.45,2.3q-1.85,2.89-3.75,5.75c-.67,1-1.37,2-2,3.06q-1.86,2.76-3.75,5.47v0H934.07a7.82,7.82,0,0,1-3.67-.91,8,8,0,0,1-3.7-4,7.56,7.56,0,0,1-.57-2.28l0-.36V625.78a8.34,8.34,0,0,1,.61-2.65,8,8,0,0,1,7.37-4.93h330.08a7.28,7.28,0,0,1,1.42.13,6.91,6.91,0,0,1,1.45.41,8,8,0,0,1,3.75,3A7.78,7.78,0,0,1,1272.15,626.19Z"/><path class="cls-4" d="M1110.06,654.9H933.22a6.42,6.42,0,0,1-3.28-.91,8.05,8.05,0,0,1-3.81-6.31,2.19,2.19,0,0,1,0-.36c0-.14,0-.27,0-.41V626.19c0-.14,0-.28,0-.41.19-4.21,3.32-7.58,7.12-7.58h155.12c2.41,10.51,7.94,24.93,20.63,35.79Z"/><rect class="cls-4" x="1228.23" y="618.2" width="3.75" height="36.7"/><rect class="cls-4" x="1215.53" y="618.2" width="3.75" height="36.7"/><rect class="cls-4" x="1200.3" y="618.2" width="3.75" height="36.7"/><rect class="cls-4" x="1176.96" y="618.2" width="3.75" height="36.7"/><rect class="cls-4" x="1152.28" y="618.2" width="3.75" height="36.7"/><rect class="cls-4" x="1114.44" y="618.2" width="3.75" height="36.7"/><rect class="cls-4" x="1079.01" y="618.2" width="3.75" height="36.7"/><rect class="cls-4" x="1047.37" y="618.2" width="3.75" height="36.7"/><rect class="cls-4" x="1240.32" y="618.2" width="3.75" height="36.7"/><rect class="cls-4" x="1248.3" y="618.2" width="3.75" height="36.7"/><path class="cls-4" d="M1259.77,618.2v31.21q-1.86,2.76-3.75,5.47V618.2Z"/><path class="cls-4" d="M1265.57,618.33V640.6q-1.85,2.89-3.75,5.75V618.2h2.33A7.28,7.28,0,0,1,1265.57,618.33Z"/><path class="cls-4" d="M1270.77,621.73v10.56c-1.22,2-2.46,4-3.75,6V618.74A8,8,0,0,1,1270.77,621.73Z"/><path class="cls-8" d="M1296.86,583.93c-.94,2-1.88,4-2.86,5.93-.48,1-1,2-1.45,3q-1.85,3.74-3.75,7.41c-.67,1.32-1.36,2.63-2.06,3.94-1.22,2.36-2.49,4.7-3.76,7s-2.58,4.68-3.89,7h-318a8,8,0,0,1-8-7.58V589.08a8,8,0,0,1,7-7.52,7.3,7.3,0,0,1,.94-.06h330.08a8.33,8.33,0,0,1,1.42.13,8,8,0,0,1,1.45.41l.42.18a2.2,2.2,0,0,1,.31.15,6,6,0,0,1,.8.47,3.88,3.88,0,0,1,.33.23l.12.08.25.2C1296.44,583.53,1296.65,583.72,1296.86,583.93Z"/><path class="cls-4" d="M1137,618.2H960.19c-3.79,0-6.92-3.37-7.12-7.57,0-.14,0-.28,0-.42V589.49c0-.14,0-.27,0-.41.18-3.88,2.87-7.06,6.28-7.52a5.83,5.83,0,0,1,.84-.06h155.13s0,0,0,.06C1117.81,592.36,1123.59,607.27,1137,618.2Z"/><rect class="cls-4" x="1255.2" y="581.51" width="3.75" height="36.7"/><rect class="cls-4" x="1242.51" y="581.51" width="3.75" height="36.7"/><rect class="cls-4" x="1227.28" y="581.51" width="3.75" height="36.7"/><rect class="cls-4" x="1203.93" y="581.51" width="3.75" height="36.7"/><rect class="cls-4" x="1179.25" y="581.51" width="3.75" height="36.7"/><rect class="cls-4" x="1141.41" y="581.51" width="3.75" height="36.7"/><rect class="cls-4" x="1105.98" y="581.51" width="3.75" height="36.7"/><rect class="cls-4" x="1074.34" y="581.51" width="3.75" height="36.7"/><rect class="cls-4" x="1267.29" y="581.51" width="3.75" height="36.7"/><rect class="cls-4" x="1275.28" y="581.51" width="3.75" height="36.7"/><path class="cls-4" d="M1286.74,581.51v22.68c-1.22,2.36-2.49,4.7-3.76,7v-29.7Z"/><path class="cls-4" d="M1292.55,581.63v11.21q-1.85,3.74-3.75,7.41V581.5h2.33A8.33,8.33,0,0,1,1292.55,581.63Z"/><path class="cls-4" d="M1296.86,583.93c-.94,2-1.88,4-2.86,5.93V582l.42.18a2.2,2.2,0,0,1,.31.15,6,6,0,0,1,.8.47,3.88,3.88,0,0,1,.33.23l.12.08.25.2C1296.44,583.53,1296.65,583.72,1296.86,583.93Z"/><path class="cls-8" d="M1255.78,552.85v20.73a8,8,0,0,1-1.36,4.46,8,8,0,0,1-3.75,3,6.74,6.74,0,0,1-1.46.41,3.81,3.81,0,0,1-.47.07l-.37,0H917.72a8,8,0,0,1-8-7.57c0-.14,0-.28,0-.41V552.85c0-.13,0-.27,0-.41a8,8,0,0,1,8-7.57h330.5a8.11,8.11,0,0,1,1,.12,6.74,6.74,0,0,1,1.46.41,7.17,7.17,0,0,1,.69.3l.41.23,0,0,.4.25s0,0,.06,0a3.32,3.32,0,0,1,.36.26,7.47,7.47,0,0,1,.8.69l.22.24,0,0,.14.15,0,0,.24.29.32.43A8,8,0,0,1,1255.78,552.85Z"/><path class="cls-4" d="M1093.7,581.56H916.86c-3.8,0-6.93-3.37-7.12-7.57,0-.14,0-.28,0-.41V552.85c0-.13,0-.27,0-.41.19-4.2,3.32-7.57,7.12-7.57H1072c.06.28.13.56.2.84,2.58,10.71,8.38,25.13,21.45,35.79C1093.65,581.52,1093.67,581.55,1093.7,581.56Z"/><rect class="cls-4" x="1211.87" y="544.87" width="3.75" height="36.7"/><rect class="cls-4" x="1199.17" y="544.87" width="3.75" height="36.7"/><rect class="cls-4" x="1183.94" y="544.87" width="3.75" height="36.7"/><rect class="cls-4" x="1160.6" y="544.87" width="3.75" height="36.7"/><rect class="cls-4" x="1135.92" y="544.87" width="3.75" height="36.7"/><rect class="cls-4" x="1098.07" y="544.87" width="3.75" height="36.7"/><rect class="cls-4" x="1062.64" y="544.87" width="3.75" height="36.7"/><rect class="cls-4" x="1031.01" y="544.87" width="3.75" height="36.7"/><rect class="cls-4" x="1223.96" y="544.87" width="3.75" height="36.7"/><rect class="cls-4" x="1231.94" y="544.87" width="3.75" height="36.7"/><rect class="cls-4" x="1239.65" y="544.87" width="3.75" height="36.7"/><path class="cls-4" d="M1249.21,545v36.43a7.32,7.32,0,0,1-1.41.13h-2.35V544.87h2.35A7.32,7.32,0,0,1,1249.21,545Z"/><path class="cls-4" d="M1254.42,548.39V578a8,8,0,0,1-3.75,3V545.41A8,8,0,0,1,1254.42,548.39Z"/><path class="cls-8" d="M1280.05,517v20.72a7.89,7.89,0,0,1-1.37,4.46,8.1,8.1,0,0,1-3.74,3,7.87,7.87,0,0,1-2.87.53H942a7.88,7.88,0,0,1-3.56-.84,8,8,0,0,1-4.39-6.4c0-.11,0-.22,0-.33s0-.27,0-.41V517c0-.14,0-.28,0-.42a8,8,0,0,1,7-7.51A7.3,7.3,0,0,1,942,509h330.09a7.15,7.15,0,0,1,1.4.13,7.27,7.27,0,0,1,1.47.41,8,8,0,0,1,3.74,3A7.84,7.84,0,0,1,1280.05,517Z"/><path class="cls-4" d="M1118,545.71H941.13a6.46,6.46,0,0,1-3.19-.84,8.07,8.07,0,0,1-3.91-6.4c0-.11,0-.22,0-.33s0-.27,0-.41V517c0-.14,0-.28,0-.42.17-3.88,2.87-7.06,6.27-7.51a6,6,0,0,1,.85-.06h155.12s0,0,0,.06c2.42,10.52,8,24.94,20.69,35.79C1117.28,545.15,1117.62,545.44,1118,545.71Z"/><rect class="cls-4" x="1236.14" y="509.02" width="3.75" height="36.69"/><rect class="cls-4" x="1223.44" y="509.02" width="3.75" height="36.69"/><rect class="cls-4" x="1208.21" y="509.02" width="3.75" height="36.69"/><rect class="cls-4" x="1184.87" y="509.02" width="3.75" height="36.69"/><rect class="cls-4" x="1160.18" y="509.02" width="3.75" height="36.69"/><rect class="cls-4" x="1122.34" y="509.02" width="3.75" height="36.69"/><rect class="cls-4" x="1086.91" y="509.02" width="3.75" height="36.69"/><rect class="cls-4" x="1055.27" y="509.02" width="3.75" height="36.69"/><rect class="cls-4" x="1248.22" y="509.02" width="3.75" height="36.69"/><rect class="cls-4" x="1256.21" y="509.02" width="3.75" height="36.69"/><rect class="cls-4" x="1263.92" y="509.02" width="3.75" height="36.69"/><path class="cls-4" d="M1273.47,509.15v36.44a8,8,0,0,1-1.4.12h-2.35V509h2.35A7.15,7.15,0,0,1,1273.47,509.15Z"/><path class="cls-4" d="M1278.68,512.55v29.64a8,8,0,0,1-3.74,3V509.56A8,8,0,0,1,1278.68,512.55Z"/><path class="cls-8" d="M1255.78,480.37v20.72a8,8,0,0,1-1.36,4.46,8,8,0,0,1-5.21,3.4l-.47.07-.26,0h-.26l-.42,0H917.72a8,8,0,0,1-8-7.58c0-.14,0-.27,0-.41V480.37c0-.14,0-.28,0-.41a8,8,0,0,1,8-7.58H1247.8a8.22,8.22,0,0,1,1.41.13,7.36,7.36,0,0,1,1.46.41,8.06,8.06,0,0,1,3.75,3A7.94,7.94,0,0,1,1255.78,480.37Z"/><path class="cls-4" d="M1093.7,509.08H916.86c-3.8,0-6.93-3.38-7.12-7.58,0-.14,0-.27,0-.41V480.37c0-.14,0-.28,0-.41.19-4.21,3.32-7.58,7.12-7.58H1072c2.47,10.79,8.23,25.69,21.65,36.64Z"/><rect class="cls-4" x="1211.87" y="472.38" width="3.75" height="36.7"/><rect class="cls-4" x="1199.17" y="472.38" width="3.75" height="36.7"/><rect class="cls-4" x="1183.94" y="472.38" width="3.75" height="36.7"/><rect class="cls-4" x="1160.6" y="472.38" width="3.75" height="36.7"/><rect class="cls-4" x="1135.92" y="472.38" width="3.75" height="36.7"/><rect class="cls-4" x="1098.07" y="472.38" width="3.75" height="36.7"/><rect class="cls-4" x="1062.64" y="472.38" width="3.75" height="36.7"/><rect class="cls-4" x="1031.01" y="472.38" width="3.75" height="36.7"/><rect class="cls-4" x="1223.96" y="472.38" width="3.75" height="36.7"/><rect class="cls-4" x="1231.94" y="472.38" width="3.75" height="36.7"/><rect class="cls-4" x="1239.65" y="472.38" width="3.75" height="36.7"/><path class="cls-4" d="M1249.21,472.51V509a8.22,8.22,0,0,1-1.41.13h-2.35v-36.7h2.35A7.32,7.32,0,0,1,1249.21,472.51Z"/><path class="cls-4" d="M1254.42,475.91v29.64a8.06,8.06,0,0,1-3.75,3V472.92A8.06,8.06,0,0,1,1254.42,475.91Z"/><path class="cls-11" d="M1136.53,404.08,976,224.91c-17.29-19.3-49.28-7.07-49.28,18.85V695.23s209.82,29.1,209.82,0Z"/><path class="cls-9" d="M855.21,689l70.31-9s-5.88-43.34,4.14-101.87c7.38-43.24,23.44-94.77,56.93-143.26,57.12-82.7,234.75-135,234.75-135l-.43-10.38-6.48-.44a25.87,25.87,0,0,1,6.33-3.33l-1-24.54a86.38,86.38,0,0,0-20.31,2.84,140.2,140.2,0,0,1,20.24-4.51l-.53-12.9c-259.72,17.7-338,178.25-359.58,300.9C845.76,626,855.21,689,855.21,689Z"/><path class="cls-10" d="M545.46,678.89,855.21,689c-.37-47.63,10-97.33,20.48-135.11a631.36,631.36,0,0,1,21-63.67c84-206.24,322.42-243.57,322.42-243.57l-270.37-97.9c-128,15-215.59,80.39-275.42,160.44C556.19,466,545.46,678.89,545.46,678.89Z"/><path class="cls-17" d="M545.46,678.89,855.21,689l70.31-9s-5.88-43.34,4.14-101.87a418.93,418.93,0,0,0-54-24.26q-8.28-3.12-16.13-6.34C659.2,464.88,671.67,322.77,673.35,309.15,556.19,466,545.46,678.89,545.46,678.89Z"/><path class="cls-9" d="M947.63,164.55l-.83,0c-2.32,0-57.67,1.49-127.4,38.06-40.87,21.44-78.1,50.57-110.67,86.59A458.79,458.79,0,0,0,673,334.14a528.34,528.34,0,0,0-35,57.69q-8.49,16.19-16.18,33.36c-.44,1-.9,2-1.35,3.06q-5.82,13.19-11.15,26.92c-1.39,3.43-24.09,60.64-36.42,119-1.31,6.17-2.48,12.35-3.52,18.49-.71,4.16-1.33,8.3-1.89,12.39a254.68,254.68,0,0,0-2.38,30.39c-.08,5.07.06,10,.44,14.65l0,.08,2.42,24.3.52,5.21.77,7.75.79,7.88.29,2.8.35,3.6,196.21-11.92,16.21-1,1.86-.11,10.62-.65,10.6-.64h0l39.43-2.4-1.19-5.25c-.16-.69-13.31-61,2.23-137.7.38-1.84.76-3.68,1.17-5.54q1.85-8.49,4.21-17.21c1.21-4.48,2.52-9,3.94-13.56q2.31-7.31,4.89-14.47c.21-.58.42-1.17.65-1.75a341.59,341.59,0,0,1,29.66-61.23c.63-1,1.28-2.05,1.92-3.07a342.66,342.66,0,0,1,23.86-33.36q4.68-5.81,9.65-11.45Q935,371,944,362.09,955.2,351,967.59,340.61l.11-.09a442.81,442.81,0,0,1,69.53-47.26c2.15-1.2,4.34-2.38,6.52-3.55l.06,0,0,0q48.93-26.14,108.73-44.41l13.36-4.08ZM1112.75,249A574.36,574.36,0,0,0,1031,286.26q-53.72,30-93.64,69.51-5.45,5.4-10.62,11-11.33,12.15-21.36,25.1a352.21,352.21,0,0,0-56.17,105.46c-.47,1.37-.91,2.75-1.33,4.13-.23.65-.44,1.3-.64,2-2.74,8.78-5.07,17.43-7.05,25.89q-1,4.46-1.95,8.83h0c-.71,3.39-1.36,6.73-2,10a397.93,397.93,0,0,0-6.16,80.44,330.92,330.92,0,0,0,4.48,47.87l-40.21,2.44-10.58.64-2.26.14-15.85,1-57.79,3.52h-.06L579,692l-1.21-12-3.06-30.67q-.53-6.45-.41-13.87c.25-17,3-37.65,8.08-61.27,3.06-14.25,7-29.59,11.77-45.87,11.38-38.8,23.58-69.43,23.71-69.73q6-15.5,12.65-30.27c.41-.9.81-1.8,1.23-2.7q7.89-17.38,16.66-33.73,12.26-22.89,26.12-43.66a457.52,457.52,0,0,1,40.76-52.54c31.79-35.2,68.1-63.68,107.93-84.64,43.23-22.75,81.36-31.63,103.5-35.08a71.38,71.38,0,0,1,34.63,3.17l151.31,53.09A8.91,8.91,0,0,1,1112.75,249Z"/><path class="cls-9" d="M705.74,379.34c1.87,45.34,29.57,71.64,74.9,69.76s91.15-31.21,89.28-76.54-28.1-71.42-73.44-69.54S703.87,334,705.74,379.34Z"/><path class="cls-12" d="M1136.53,404.08V768.79q-8.7,5.34-17.73,10.24-6.94,3.76-14,7.26-10.77,5.3-22,10-1.85.79-3.75,1.56-3.27,1.33-6.58,2.61-4.79,1.86-9.64,3.61-10.76,3.88-21.9,7.22c-2.64.8-5.29,1.56-7.94,2.3q-15.37,4.32-31.42,7.62a163.75,163.75,0,0,1-25,4.47A546.06,546.06,0,0,1,916,831.46c-3.4.15-6.84.26-10.3.34q-7.53.19-15.23.19-9.23,0-18.54-.21a857.93,857.93,0,0,1-158.4-18.36c-4-.84-7.87-1.7-11.79-2.6-46.31-10.6-90.94-25.22-131.31-44-1-.47-2.06-1-3.06-1.43q-15.26-7.18-29.63-15.18V404.08a12.28,12.28,0,0,1,12.25-12.25h574.33c.46,0,.92,0,1.36.07A12.31,12.31,0,0,1,1136.53,404.08Z"/><path class="cls-11" d="M589.92,425.19H579.7a1.54,1.54,0,0,0,0,3.07h10.22a1.54,1.54,0,0,0,0-3.07Zm20.42,0H600.13a1.54,1.54,0,1,0,0,3.07h10.21a1.54,1.54,0,1,0,0-3.07Zm21.4.37a1.49,1.49,0,0,0-1-.37H620.55a1.53,1.53,0,0,0-.06,3.06h10.27a1.54,1.54,0,0,0,1.54-1.54A1.45,1.45,0,0,0,631.74,425.56Zm19.45-.37H641a1.54,1.54,0,1,0,0,3.07h10.21a1.54,1.54,0,0,0,0-3.07Zm20.42,0H661.4a1.54,1.54,0,1,0,0,3.07h10.21a1.54,1.54,0,0,0,0-3.07Zm20.41,0h-10.2a1.54,1.54,0,1,0,0,3.07H692a1.54,1.54,0,0,0,0-3.07Zm20.42,0H702.23a1.54,1.54,0,0,0,0,3.07h10.21a1.54,1.54,0,1,0,0-3.07Zm20.44,0H722.65a1.52,1.52,0,0,0-1.31.75,1.5,1.5,0,0,0-.21.78,1.54,1.54,0,0,0,1.52,1.54h10.23a1.54,1.54,0,0,0,0-3.07Zm20.42,0H743.09a1.54,1.54,0,1,0,0,3.07H753.3a1.54,1.54,0,0,0,0-3.07Zm20.41,0H763.5a1.54,1.54,0,0,0,0,3.07h10.21a1.54,1.54,0,0,0,0-3.07Zm20.42,0H783.92a1.54,1.54,0,0,0,0,3.07h10.21a1.54,1.54,0,1,0,0-3.07Zm20.42,0H804.34a1.54,1.54,0,0,0,0,3.07h10.21a1.54,1.54,0,1,0,0-3.07Zm20.43,0H824.76a1.54,1.54,0,0,0,0,3.07H835a1.54,1.54,0,0,0,0-3.07Zm20.42,0H845.19a1.52,1.52,0,0,0-1.52,1.39h0a.3.3,0,0,0,0,.13,1.54,1.54,0,0,0,1.54,1.54H855.4a1.54,1.54,0,1,0,0-3.07Zm20.42,0H865.61a1.54,1.54,0,0,0,0,3.07h10.21a1.54,1.54,0,1,0,0-3.07Zm20.42,0H886a1.54,1.54,0,0,0,0,3.07h10.21a1.54,1.54,0,0,0,0-3.07Zm20.43,0H906.45a1.54,1.54,0,0,0,0,3.07h10.22a1.54,1.54,0,0,0,0-3.07Zm20.42,0H926.88a.55.55,0,0,0-.18,0,1.52,1.52,0,0,0,0,3,.55.55,0,0,0,.18,0h10.21a1.54,1.54,0,1,0,0-3.07Zm20.42,0H947.3a1.54,1.54,0,1,0,0,3.07h10.21a1.54,1.54,0,1,0,0-3.07Zm20.43,0H967.73a1.54,1.54,0,1,0,0,3.07h10.21a1.54,1.54,0,0,0,0-3.07Zm20.42,0H988.15a1.54,1.54,0,1,0,0,3.07h10.21a1.54,1.54,0,0,0,0-3.07Zm20.41,0h-10.2a1.54,1.54,0,1,0,0,3.07h10.2a1.54,1.54,0,1,0,0-3.07Zm20.42,0H1029a1.54,1.54,0,0,0,0,3.07h10.21a1.54,1.54,0,1,0,0-3.07Zm20.44,0h-10.22a1.54,1.54,0,0,0,0,3.07h10.22a1.54,1.54,0,0,0,0-3.07Zm20.42,0h-10.21a1.54,1.54,0,0,0,0,3.07h10.21a1.54,1.54,0,0,0,0-3.07Zm10.08,4.85a1.53,1.53,0,0,0-2.44,1.85,9.12,9.12,0,0,1,1.87,5.52v3.28a1.53,1.53,0,1,0,3,0v-3.28A12.12,12.12,0,0,0,1090.13,430Zm-518.31-.17a1.55,1.55,0,0,0-2.15.33,12.14,12.14,0,0,0-2.35,7.21v3.46a1.52,1.52,0,0,0,1.52,1.54,1.54,1.54,0,0,0,1.54-1.54v-3.46a9,9,0,0,1,1.77-5.39A1.54,1.54,0,0,0,571.82,429.87Zm519.27,19.5a1.53,1.53,0,0,0-1.53,1.54v10.21a1.53,1.53,0,1,0,3,0V450.91A1.52,1.52,0,0,0,1091.09,449.37Zm-522.25.18a1.52,1.52,0,0,0-1.52,1.53V461.3a1.52,1.52,0,0,0,1.52,1.53,1.54,1.54,0,0,0,1.54-1.53V451.08A1.54,1.54,0,0,0,568.84,449.55Zm522.25,20.25a1.52,1.52,0,0,0-1.53,1.53v10.21a1.53,1.53,0,1,0,3,0V471.33A1.52,1.52,0,0,0,1091.09,469.8ZM568.84,470a1.52,1.52,0,0,0-1.52,1.53v10.21a1.52,1.52,0,0,0,1.52,1.53,1.54,1.54,0,0,0,1.54-1.53V471.51A1.53,1.53,0,0,0,568.84,470Zm522.25,20.24a1.52,1.52,0,0,0-1.53,1.53V502a1.53,1.53,0,1,0,3,0V491.75A1.52,1.52,0,0,0,1091.09,490.22Zm-522.25.18a1.52,1.52,0,0,0-1.52,1.53v10.21a1.52,1.52,0,0,0,1.52,1.53,1.53,1.53,0,0,0,1.54-1.53V491.93A1.53,1.53,0,0,0,568.84,490.4Zm522.25,20.24a1.54,1.54,0,0,0-.43.06,1.52,1.52,0,0,0-1.1,1.47v10.21a1.52,1.52,0,0,0,1.1,1.47,1.54,1.54,0,0,0,.43.06,1.52,1.52,0,0,0,1.52-1.53V512.17A1.52,1.52,0,0,0,1091.09,510.64Zm-522.25.18a1.52,1.52,0,0,0-1.52,1.53v10.21a1.52,1.52,0,0,0,1.52,1.53,1.53,1.53,0,0,0,1.54-1.53V512.35A1.53,1.53,0,0,0,568.84,510.82Zm522.25,20.24a1.54,1.54,0,0,0-.43.06,1.52,1.52,0,0,0-1.1,1.47V542.8a1.53,1.53,0,1,0,3,0V532.59A1.52,1.52,0,0,0,1091.09,531.06Zm-522.25.18a1.52,1.52,0,0,0-1.52,1.53V543a1.56,1.56,0,0,0,1.52,1.54,1.54,1.54,0,0,0,1.54-1.54V532.77A1.54,1.54,0,0,0,568.84,531.24Zm522.25,20.24a1.52,1.52,0,0,0-1.53,1.53v10.22a1.53,1.53,0,1,0,3,0V553A1.52,1.52,0,0,0,1091.09,551.48Zm-522.25.18a1.52,1.52,0,0,0-1.52,1.53v10.22a1.52,1.52,0,0,0,1.52,1.53,1.54,1.54,0,0,0,1.54-1.53V553.19A1.54,1.54,0,0,0,568.84,551.66Zm522.25,20.25a1.52,1.52,0,0,0-1.53,1.53v10.21a1.53,1.53,0,1,0,3,0V573.44A1.52,1.52,0,0,0,1091.09,571.91Zm-522.25.17a1.52,1.52,0,0,0-1.52,1.54v10.21a1.52,1.52,0,0,0,1.52,1.53,1.54,1.54,0,0,0,1.54-1.53V573.62A1.54,1.54,0,0,0,568.84,572.08Zm522.25,20.25a1.52,1.52,0,0,0-1.53,1.53v10.21a1.53,1.53,0,1,0,3,0V593.86A1.52,1.52,0,0,0,1091.09,592.33Zm-521.69.29a1.43,1.43,0,0,0-.56-.11,1.52,1.52,0,0,0-1.52,1.53v10.21a1.48,1.48,0,0,0,.19.76,1.54,1.54,0,0,0,2.87-.76V594A1.51,1.51,0,0,0,569.4,592.62Zm521.69,20.13a1.52,1.52,0,0,0-1.53,1.53v10.21a1.5,1.5,0,0,0,1,1.42h0a1.51,1.51,0,0,0,2.08-1.42V614.28A1.52,1.52,0,0,0,1091.09,612.75Zm-522.25.18a1.52,1.52,0,0,0-1.52,1.53v10.21a1.52,1.52,0,0,0,1.52,1.53,1.53,1.53,0,0,0,1.54-1.53V614.46A1.53,1.53,0,0,0,568.84,612.93Zm522.25,20.24a1.52,1.52,0,0,0-1.53,1.53v10.21a1.53,1.53,0,1,0,3,0V634.7A1.52,1.52,0,0,0,1091.09,633.17Zm-522.25.18a1.52,1.52,0,0,0-1.52,1.53v10.21a1.52,1.52,0,0,0,1.52,1.54,1.54,1.54,0,0,0,1.54-1.54V634.88A1.54,1.54,0,0,0,568.84,633.35Zm523.75,21.55a1.45,1.45,0,0,0-.48-.91,1.5,1.5,0,0,0-1-.4,1.48,1.48,0,0,0-1,.4,1.53,1.53,0,0,0-.5.91c0,.07,0,.15,0,.22v10.22a1.53,1.53,0,1,0,3,0V655.12A.82.82,0,0,0,1092.59,654.9Zm-523.75-1.13a1.52,1.52,0,0,0-1.52,1.53v10.22a1.52,1.52,0,0,0,1.52,1.53,1.54,1.54,0,0,0,1.54-1.53V655.3A1.54,1.54,0,0,0,568.84,653.77ZM1091.09,674a1.53,1.53,0,0,0-1.53,1.54v10.21a1.53,1.53,0,1,0,3,0V675.55A1.52,1.52,0,0,0,1091.09,674Zm-522.25.18a1.51,1.51,0,0,0-1.52,1.54v10.21a1.52,1.52,0,0,0,1.52,1.53,1.34,1.34,0,0,0,.46-.08,1.53,1.53,0,0,0,1.08-1.45V675.73A1.54,1.54,0,0,0,568.84,674.19Zm522.25,20.25a1.52,1.52,0,0,0-1.53,1.53v10.21a1.53,1.53,0,1,0,3,0V696A1.52,1.52,0,0,0,1091.09,694.44Zm-521,.83a1.52,1.52,0,0,0-2.77.88v10.21a1.52,1.52,0,0,0,1.52,1.53,1.54,1.54,0,0,0,1.54-1.53V696.15A1.5,1.5,0,0,0,570.09,695.27Zm521,19.59a1.52,1.52,0,0,0-1.53,1.53V726.6a1.17,1.17,0,0,0,.07.46.07.07,0,0,0,0,.06,1.5,1.5,0,0,0,1,1,1.54,1.54,0,0,0,.43.06,1.51,1.51,0,0,0,1.43-1,.13.13,0,0,0,0-.06,1.17,1.17,0,0,0,.08-.46V716.39A1.52,1.52,0,0,0,1091.09,714.86ZM568.84,715a1.52,1.52,0,0,0-1.52,1.53v10.21a1.52,1.52,0,0,0,1.52,1.53,1.53,1.53,0,0,0,1.54-1.53V716.57A1.53,1.53,0,0,0,568.84,715Zm522.25,20.24a1.54,1.54,0,0,0-.43.06,1.52,1.52,0,0,0-1.1,1.47V747a1.52,1.52,0,0,0,1.1,1.47,1.54,1.54,0,0,0,.43.06,1.52,1.52,0,0,0,1.52-1.53V736.81A1.52,1.52,0,0,0,1091.09,735.28Zm-522.25.18a1.52,1.52,0,0,0-1.52,1.53V747.2a1.52,1.52,0,0,0,1.52,1.53,1.53,1.53,0,0,0,1.54-1.53V737A1.54,1.54,0,0,0,568.84,735.46Zm522.25,20.24a1.54,1.54,0,0,0-.43.06,1.52,1.52,0,0,0-1.1,1.47v10.21a1.53,1.53,0,1,0,3,0V757.23A1.52,1.52,0,0,0,1091.09,755.7Zm-522.25.18a1.52,1.52,0,0,0-1.52,1.53v8c1,.48,2,1,3.06,1.43v-9.45A1.54,1.54,0,0,0,568.84,755.88Zm523.73,21.44a1.52,1.52,0,0,0-3,.34v10.21a1.53,1.53,0,1,0,3,0V777.66A1,1,0,0,0,1092.57,777.32ZM712.8,810.52H702.59a1.48,1.48,0,0,0-.9.3c3.92.9,7.84,1.76,11.79,2.6a1.53,1.53,0,0,0-.68-2.9Zm20.43,0H723a1.53,1.53,0,1,0,0,3.06h10.22a1.53,1.53,0,0,0,0-3.06Zm20.42,0H743.44a1.53,1.53,0,1,0,0,3.06h10.21a1.53,1.53,0,1,0,0-3.06Zm20.42,0H763.86a1.53,1.53,0,1,0,0,3.06h10.21a1.53,1.53,0,1,0,0-3.06Zm20.42,0H784.28a1.53,1.53,0,1,0,0,3.06h10.21a1.53,1.53,0,1,0,0-3.06Zm20.43,0H804.7a1.53,1.53,0,1,0,0,3.06h10.22a1.53,1.53,0,0,0,0-3.06Zm20.42,0H825.13a1.53,1.53,0,1,0,0,3.06h10.21a1.53,1.53,0,0,0,0-3.06Zm20.41,0h-10.2a1.53,1.53,0,1,0,0,3.06h10.2a1.53,1.53,0,0,0,0-3.06Zm20.44,0H866a1.53,1.53,0,0,0-1,.39,1.47,1.47,0,0,0-.51,1.14,1.53,1.53,0,0,0,1.52,1.53h10.23a1.53,1.53,0,0,0,0-3.06Zm20.42,0H886.4a1.53,1.53,0,1,0,0,3.06h10.21a1.53,1.53,0,0,0,0-3.06Zm20.41,0h-10.2a1.53,1.53,0,1,0,0,3.06H917a1.53,1.53,0,0,0,0-3.06Zm20.42,0H927.23a1.53,1.53,0,1,0,0,3.06h10.21a1.53,1.53,0,1,0,0-3.06Zm20.42,0H947.65a1.53,1.53,0,0,0,0,3.06h10.21a1.53,1.53,0,1,0,0-3.06Zm20.42,0H968.07a1.53,1.53,0,0,0,0,3.06h10.21a1.53,1.53,0,1,0,0-3.06Zm20.43,0H988.5a1.53,1.53,0,1,0,0,3.06h10.21a1.53,1.53,0,1,0,0-3.06Zm20.42,0h-10.21a1.53,1.53,0,0,0,0,3.06h10.21a1.53,1.53,0,1,0,0-3.06Zm20.43,0h-10.22a1.52,1.52,0,0,0-1.52,1.42v.11a1.52,1.52,0,0,0,1.52,1.53h3.6c2.65-.74,5.3-1.5,7.94-2.3A1.51,1.51,0,0,0,1039.56,810.52Z"/><rect class="cls-11" x="474.34" y="574.13" width="138.87" height="61.27" rx="23.54"/><path class="cls-18" d="M1168,654c0,.31,0,.61,0,.91a194.13,194.13,0,0,1-4.29,35.53,1.55,1.55,0,0,1,0,.21v.05c-.88,4.09-1.91,8.14-3.06,12.16a192.65,192.65,0,0,1-8.65,24.21.07.07,0,0,1,0,.06,192.16,192.16,0,0,1-15.39,28.68q-2.62,4.05-5.46,8A191.52,191.52,0,0,1,1118.8,779q-6.94,3.76-14,7.26-10.77,5.3-22,10-1.85.79-3.75,1.56-3.27,1.33-6.58,2.61-4.79,1.86-9.64,3.61-10.76,3.88-21.9,7.22c-2.64.8-5.29,1.56-7.94,2.3q-15.37,4.32-31.42,7.62a163.75,163.75,0,0,1-25,4.47A546.06,546.06,0,0,1,916,831.46c-3.4.15-6.84.26-10.3.34a193.69,193.69,0,0,1-36.6-18.22c-1.38-.86-2.75-1.76-4.1-2.67a195.06,195.06,0,0,1-81.8-122.14c-.16-.72-.31-1.44-.44-2.17q-.68-3.45-1.21-6.91a195,195,0,0,1,39.28-150.22,191.53,191.53,0,0,1,27.06-28.05c4.19-3.56,8.58-7,13.12-10.18q5.56-4,11.48-7.56l0,0q2-1.23,4-2.4l3.24-1.83A194.78,194.78,0,0,1,907.15,467a191.06,191.06,0,0,1,19.55-6,194.39,194.39,0,0,1,126.66,11.41c3.12,1.4,6.23,2.89,9.29,4.46q1.88,1,3.75,2,4.72,2.55,9.29,5.38,7.13,4.37,13.87,9.38c1,.75,2,1.53,3,2.31,1.84,1.42,3.66,2.89,5.46,4.39q1.9,1.56,3.75,3.2,3.09,2.7,6.06,5.54l.06.06a190.77,190.77,0,0,1,14.4,15.36c1.29,1.51,2.54,3.06,3.75,4.62q5.52,7,10.44,14.55c.28.42.54.84.81,1.26s.36.56.52.84c.62,1,1.23,1.92,1.8,2.89,1.45,2.37,2.86,4.78,4.2,7.23a196.66,196.66,0,0,1,11.83,25.67.14.14,0,0,1,0,.06A192.85,192.85,0,0,1,1168,654Z"/><path class="cls-8" d="M1150.41,690.43a2.6,2.6,0,0,0,0,.26,195.66,195.66,0,0,1-10,36.37s0,0,0,.06q-1.82,4.75-3.87,9.41a191.85,191.85,0,0,1-10.44,20.32q-1.81,3.09-3.75,6.09c-.17.28-.35.55-.52.82a192.75,192.75,0,0,1-17.07,22.53q-10.77,5.3-22,10-1.85.79-3.75,1.56-3.27,1.33-6.58,2.61-4.79,1.86-9.64,3.61-10.76,3.88-21.9,7.22c-2.64.8-5.29,1.56-7.94,2.3q-15.37,4.32-31.42,7.62a163.75,163.75,0,0,1-25,4.47A546.06,546.06,0,0,1,916,831.46c-3.4.15-6.84.26-10.3.34q-7.53.19-15.23.19-9.23,0-18.54-.21a194.74,194.74,0,0,1-104.94-142c-.21-1.22-.39-2.45-.56-3.68-.27-1.8-.52-3.61-.73-5.42a194.17,194.17,0,0,1,79.44-180.5q2-1.45,4.08-2.86,6-4.11,12.44-7.8c1.08-.64,2.19-1.26,3.31-1.87,2.48-1.38,5-2.69,7.52-3.94l0,0c1.28-.64,2.56-1.26,3.85-1.87s2.35-1.08,3.52-1.6A192.24,192.24,0,0,1,903,471.6l2.23-.65a190.48,190.48,0,0,1,21.47-4.87q5.74-1,11.5-1.57a194.45,194.45,0,0,1,78.74,7.87q7.13,2.24,14.06,5c1.27.5,2.52,1,3.75,1.55q4.85,2,9.59,4.36a194.63,194.63,0,0,1,18.31,10.22q1.88,1.17,3.75,2.43A191,191,0,0,1,1083.88,509s.06,0,.07.06c1,.83,2,1.68,3,2.54s1.78,1.56,2.65,2.35c.36.34.74.68,1.1,1,.66.6,1.3,1.21,1.95,1.82q5.49,5.19,10.58,10.87A193,193,0,0,1,1117,544.87l0,0h0c.18.26.38.51.55.77A199.39,199.39,0,0,1,1129,564q3.75,6.81,6.89,13.78c.22.46.43.92.62,1.38.35.77.68,1.55,1,2.32l0,.06c1.37,3.21,2.66,6.44,3.84,9.68,1.39,3.75,2.62,7.52,3.75,11.31q2.33,7.79,4,15.65a189.67,189.67,0,0,1,3.14,20.67c.5,5,.8,10.09.88,15.12,0,.31,0,.61,0,.91A194.28,194.28,0,0,1,1150.41,690.43Z"/><path class="cls-4" d="M1137,654.9c0-.31,0-.61,0-.91-.08-2.73-.24-5.45-.45-8.17a174.78,174.78,0,0,0-4.42-27.62c-.52-2.12-1.09-4.22-1.67-6.32a178.55,178.55,0,0,0-11.71-30.32l0-.06c-1.18-2.4-2.42-4.77-3.72-7.13a179.34,179.34,0,0,0-13.16-20.47c-1.21-1.64-2.48-3.27-3.75-4.86-.9-1.12-1.8-2.24-2.73-3.33-.23-.28-.46-.56-.71-.84-.67-.79-1.33-1.57-2-2.34s-1.29-1.46-1.95-2.18c-.35-.41-.74-.81-1.1-1.21-.87-.93-1.74-1.86-2.65-2.77A173.54,173.54,0,0,0,1059,513q-1.86-1.26-3.75-2.46l-2.33-1.47-.1-.06a178.09,178.09,0,0,0-18.09-9.69c-1.23-.58-2.48-1.14-3.75-1.69a179.73,179.73,0,0,0-71.81-15,174.32,174.32,0,0,0-32.49,3.13,171.94,171.94,0,0,0-17,4.14c-5,1.49-10,3.22-15,5.18h0a179.29,179.29,0,0,0-20.39,9.64q-3.12,1.71-6.14,3.54a176.76,176.76,0,0,0-16.11,11q-6.23,4.74-12,10-3.49,3.16-6.77,6.53a178,178,0,0,0-49.62,143.75c.26,2.38.58,4.75.94,7.12.1.66.2,1.33.31,2a178.12,178.12,0,0,0,81.58,121.86q2.53,1.58,5.15,3.06A178.06,178.06,0,0,0,910.65,830q2.65.76,5.3,1.44a546.06,546.06,0,0,0,60.57-5.79,167.8,167.8,0,0,1-80.83-12.09q-3.53-1.46-6.94-3.06A167.17,167.17,0,0,1,795.63,688q-.09-.5-.15-1c-.46-2.69-.83-5.4-1.14-8.11a167.42,167.42,0,0,1,41.89-130.75q3.54-3.9,7.32-7.58,2.15-2.08,4.37-4.1a166.69,166.69,0,0,1,16.56-13.14,164.45,164.45,0,0,1,15-9.32q5.1-2.81,10.32-5.24a165.12,165.12,0,0,1,64.6-15.45,166.79,166.79,0,0,1,51.75,6.56,168.93,168.93,0,0,1,24.4,9.13l.12.06a164.48,164.48,0,0,1,24.6,14.17q1.89,1.32,3.75,2.69a165.12,165.12,0,0,1,21.42,18.93c.26.28.54.56.79.84q4.35,4.62,8.33,9.58,1.55,1.94,3,3.93,2.84,3.75,5.46,7.68c1.29,1.92,2.56,3.87,3.75,5.86,1.37,2.2,2.66,4.44,3.91,6.71.38.67.75,1.35,1.11,2h0s0,0,0,0q1.5,2.79,2.87,5.64A165.47,165.47,0,0,1,1126.4,654c0,.3,0,.61,0,.91a165,165,0,0,1-2.81,35.53c0,.08,0,.17,0,.26-.94,5-2.13,9.92-3.52,14.84-.07.21-.13.42-.19.63a171.33,171.33,0,0,1-7.55,20.9l0,.06a164.75,164.75,0,0,1-19.66,33.5c-.63.84-1.29,1.68-1.95,2.51-.16.21-.32.42-.5.63l-.6.77q-3.27,4-6.81,7.87c-1.2,1.35-2.47,2.67-3.75,4a165.66,165.66,0,0,1-27.89,22.83c-.63.43-1.29.85-1.94,1.24q-4.35,2.77-8.9,5.28t-9.36,4.79c-1,.49-2.05,1-3.09,1.42a165.07,165.07,0,0,1-26.3,9.26q16.07-3.3,31.42-7.62c2.65-.74,5.3-1.5,7.94-2.3q11.14-3.35,21.9-7.22,2.49-1.77,4.89-3.61c3.92-3,7.71-6.13,11.33-9.42,1.27-1.15,2.52-2.31,3.75-3.5q3.51-3.35,6.81-6.88c1-1.1,2-2.21,3-3.33,3.84-4.34,7.48-8.86,10.87-13.56a175.12,175.12,0,0,0,18.9-33.3c.48-1.1,1-2.22,1.41-3.34a.07.07,0,0,0,0-.06,183.92,183.92,0,0,0,6.25-18c.71-2.5,1.38-5,2-7.52q1.32-5.43,2.31-10.89a2,2,0,0,1,0-.26c.31-1.81.6-3.63.87-5.44q.86-5.85,1.3-11.72A170.86,170.86,0,0,0,1137,654.9Z"/><path class="cls-4" d="M1049.36,690.69a1.17,1.17,0,0,0,0-.26,57.41,57.41,0,0,0-3.79-13.63c-.38-1-.79-1.89-1.19-2.8a52.72,52.72,0,0,0-10.27-15.38c-.5-.5-1-1-1.52-1.46-.73-.66-1.48-1.3-2.23-1.92-.15-.11-.29-.23-.42-.34l-1.19-.91a53,53,0,0,0-14.73-7.75,88.37,88.37,0,0,0-23.58-4.43c-8.67-.54-18.13-.66-28.33-.37a136,136,0,0,1-16.17-.33,40.77,40.77,0,0,1-11.39-2.49,19.9,19.9,0,0,1-7.59-5.15,2.46,2.46,0,0,1-.22-.25c-.21-.24-.42-.49-.61-.74a23.05,23.05,0,0,1-1.92-2.77,30,30,0,0,1-2.08-4.21,29.08,29.08,0,0,1-2.19-9.34,19.93,19.93,0,0,1,1.37-8.79,21.41,21.41,0,0,1,5.26-7.52c.06-.06.1-.11.16-.16h0a31.76,31.76,0,0,1,9.91-6,26,26,0,0,1,16.46-1.55,24.29,24.29,0,0,1,4.77,1.75q9.87,4.83,16.06,20.09l39.6-16.08a78.22,78.22,0,0,0-8.84-16.31s0,0,0-.06a63.79,63.79,0,0,0-4.1-5.12,55.53,55.53,0,0,0-38.82-19.16,73.11,73.11,0,0,0-23.89,2.45l-2.92-7.17-3.1-7.63-5.1-12.56-.11-.27L904.67,541l5.06,12.43,6,14.8c-.91.47-1.79,1-2.66,1.45-1.15.63-2.25,1.28-3.34,2a76.41,76.41,0,0,0-14.12,10.93,61.58,61.58,0,0,0-12.69,17.68,49.11,49.11,0,0,0-4.67,20,53.14,53.14,0,0,0,4.19,21.28q5.07,12.48,13,19.76a51.27,51.27,0,0,0,13.55,8.9c1.62.73,3.29,1.38,5,2a78,78,0,0,0,11,2.82c.57.11,1.15.21,1.72.3a97.87,97.87,0,0,0,10.93,1.16,279.86,279.86,0,0,0,28.38,0,104.23,104.23,0,0,1,15.45.1,40,40,0,0,1,11.32,2.52,21.25,21.25,0,0,1,7.93,5.38,26.26,26.26,0,0,1,4.13,6.11c0,.09.07.17.12.26.38.77.74,1.58,1.09,2.43a24.71,24.71,0,0,1,1.89,9.39,17,17,0,0,1-.1,1.75,19.81,19.81,0,0,1-2,7.19,25.41,25.41,0,0,1-6.29,7.9,38.14,38.14,0,0,1-10.63,6.24c-1.38.56-2.79,1-4.21,1.47l-.2.06a46.24,46.24,0,0,1-7.22,1.49,26.61,26.61,0,0,1-11.72-1.18l-.88-.31-.16-.06a27.85,27.85,0,0,1-9.67-6.55q-5-5-8.67-14L910,721.16h0l-3.39,1.38q6.18,15.27,15.56,24.21A59.66,59.66,0,0,0,934,755.63a53,53,0,0,0,8.68,3.92A62.71,62.71,0,0,0,966,762.91a98.56,98.56,0,0,0,24-4l2,4.82,8.28,20.39L1022,775.3l-4.7-11.54L1011.73,750a88.8,88.8,0,0,0,20.34-14.2,64.18,64.18,0,0,0,7.68-8.66l0-.06a57.72,57.72,0,0,0,4.54-7.3c.23-.46.47-.92.68-1.4a48.89,48.89,0,0,0,3.78-11.17,48.1,48.1,0,0,0,1-8.7A46.77,46.77,0,0,0,1049.36,690.69Z"/><path class="cls-8" d="M485.94,604a14.47,14.47,0,1,1,14.47,14.47A14.47,14.47,0,0,1,485.94,604Z"/><rect class="cls-19" y="1762.49" width="2751.77" height="7.3" rx="3.12"/></g></g></svg>